<mxfile host="app.diagrams.net" modified="2023-09-06T19:48:28.531Z" agent="Mozilla/5.0 (Windows NT 10.0; Win64; x64) AppleWebKit/537.36 (KHTML, like Gecko) Chrome/116.0.0.0 Safari/537.36 Edg/116.0.1938.69" etag="qAObWjgKrB0HPGEVhRPo" version="21.7.2" type="github">
  <diagram name="Страница — 1" id="LxYUbvrPdpHzkEJM3d1U">
    <mxGraphModel dx="1434" dy="769" grid="1" gridSize="10" guides="1" tooltips="1" connect="1" arrows="1" fold="1" page="1" pageScale="1" pageWidth="827" pageHeight="1169" math="0" shadow="0">
      <root>
        <mxCell id="0" />
        <mxCell id="1" parent="0" />
        <mxCell id="uKtIkehXH7muRqhstlqQ-1" value="Покупатель&lt;br&gt;" style="shape=umlActor;verticalLabelPosition=bottom;verticalAlign=top;html=1;outlineConnect=0;" vertex="1" parent="1">
          <mxGeometry x="180" y="170" width="30" height="60" as="geometry" />
        </mxCell>
        <mxCell id="uKtIkehXH7muRqhstlqQ-56" value="" style="edgeStyle=orthogonalEdgeStyle;rounded=0;orthogonalLoop=1;jettySize=auto;html=1;" edge="1" parent="1" source="uKtIkehXH7muRqhstlqQ-2" target="uKtIkehXH7muRqhstlqQ-41">
          <mxGeometry relative="1" as="geometry" />
        </mxCell>
        <mxCell id="uKtIkehXH7muRqhstlqQ-2" value="Администратор" style="shape=umlActor;verticalLabelPosition=bottom;verticalAlign=top;html=1;outlineConnect=0;" vertex="1" parent="1">
          <mxGeometry x="180" y="690" width="30" height="60" as="geometry" />
        </mxCell>
        <mxCell id="uKtIkehXH7muRqhstlqQ-3" value="Продавец" style="shape=umlActor;verticalLabelPosition=bottom;verticalAlign=top;html=1;outlineConnect=0;" vertex="1" parent="1">
          <mxGeometry x="580" y="170" width="30" height="60" as="geometry" />
        </mxCell>
        <mxCell id="uKtIkehXH7muRqhstlqQ-7" value="Выбор и покупка товаров" style="ellipse;whiteSpace=wrap;html=1;" vertex="1" parent="1">
          <mxGeometry x="294" y="70" width="120" height="80" as="geometry" />
        </mxCell>
        <mxCell id="uKtIkehXH7muRqhstlqQ-8" value="" style="endArrow=none;html=1;rounded=0;entryX=0;entryY=0.5;entryDx=0;entryDy=0;" edge="1" parent="1" target="uKtIkehXH7muRqhstlqQ-7">
          <mxGeometry width="50" height="50" relative="1" as="geometry">
            <mxPoint x="230" y="180" as="sourcePoint" />
            <mxPoint x="290" y="110" as="targetPoint" />
          </mxGeometry>
        </mxCell>
        <mxCell id="uKtIkehXH7muRqhstlqQ-9" value="Проверка заказов" style="ellipse;whiteSpace=wrap;html=1;" vertex="1" parent="1">
          <mxGeometry x="294" y="160" width="120" height="80" as="geometry" />
        </mxCell>
        <mxCell id="uKtIkehXH7muRqhstlqQ-10" value="" style="endArrow=none;html=1;rounded=0;entryX=0;entryY=0.5;entryDx=0;entryDy=0;" edge="1" parent="1" target="uKtIkehXH7muRqhstlqQ-9">
          <mxGeometry width="50" height="50" relative="1" as="geometry">
            <mxPoint x="230" y="210" as="sourcePoint" />
            <mxPoint x="290" y="190" as="targetPoint" />
          </mxGeometry>
        </mxCell>
        <mxCell id="uKtIkehXH7muRqhstlqQ-11" value="Отправление сообщений" style="ellipse;whiteSpace=wrap;html=1;" vertex="1" parent="1">
          <mxGeometry x="294" y="250" width="120" height="80" as="geometry" />
        </mxCell>
        <mxCell id="uKtIkehXH7muRqhstlqQ-12" value="" style="endArrow=none;html=1;rounded=0;entryX=0;entryY=0.5;entryDx=0;entryDy=0;" edge="1" parent="1" target="uKtIkehXH7muRqhstlqQ-11">
          <mxGeometry width="50" height="50" relative="1" as="geometry">
            <mxPoint x="230" y="240" as="sourcePoint" />
            <mxPoint x="270" y="280" as="targetPoint" />
          </mxGeometry>
        </mxCell>
        <mxCell id="uKtIkehXH7muRqhstlqQ-13" value="Получение уведомлений" style="ellipse;whiteSpace=wrap;html=1;" vertex="1" parent="1">
          <mxGeometry x="294" y="340" width="120" height="80" as="geometry" />
        </mxCell>
        <mxCell id="uKtIkehXH7muRqhstlqQ-14" value="" style="endArrow=none;html=1;rounded=0;exitX=0;exitY=0.5;exitDx=0;exitDy=0;" edge="1" parent="1" source="uKtIkehXH7muRqhstlqQ-13">
          <mxGeometry width="50" height="50" relative="1" as="geometry">
            <mxPoint x="390" y="420" as="sourcePoint" />
            <mxPoint x="210" y="260" as="targetPoint" />
          </mxGeometry>
        </mxCell>
        <mxCell id="uKtIkehXH7muRqhstlqQ-16" value="Управление заказами и &lt;br&gt;товарами" style="ellipse;whiteSpace=wrap;html=1;" vertex="1" parent="1">
          <mxGeometry x="271" y="630" width="166" height="90" as="geometry" />
        </mxCell>
        <mxCell id="uKtIkehXH7muRqhstlqQ-19" value="" style="endArrow=none;html=1;rounded=0;entryX=0;entryY=0.5;entryDx=0;entryDy=0;" edge="1" parent="1" target="uKtIkehXH7muRqhstlqQ-16">
          <mxGeometry width="50" height="50" relative="1" as="geometry">
            <mxPoint x="220" y="560" as="sourcePoint" />
            <mxPoint x="440" y="570" as="targetPoint" />
          </mxGeometry>
        </mxCell>
        <mxCell id="uKtIkehXH7muRqhstlqQ-20" value="Мониторинг и анализ" style="ellipse;whiteSpace=wrap;html=1;" vertex="1" parent="1">
          <mxGeometry x="300" y="730" width="120" height="80" as="geometry" />
        </mxCell>
        <mxCell id="uKtIkehXH7muRqhstlqQ-21" value="" style="endArrow=none;html=1;rounded=0;entryX=0;entryY=0.5;entryDx=0;entryDy=0;" edge="1" parent="1" target="uKtIkehXH7muRqhstlqQ-20">
          <mxGeometry width="50" height="50" relative="1" as="geometry">
            <mxPoint x="220" y="730" as="sourcePoint" />
            <mxPoint x="440" y="570" as="targetPoint" />
          </mxGeometry>
        </mxCell>
        <mxCell id="uKtIkehXH7muRqhstlqQ-24" value="" style="endArrow=none;html=1;rounded=0;entryX=0;entryY=0.5;entryDx=0;entryDy=0;" edge="1" parent="1" target="uKtIkehXH7muRqhstlqQ-11">
          <mxGeometry width="50" height="50" relative="1" as="geometry">
            <mxPoint x="210" y="470" as="sourcePoint" />
            <mxPoint x="440" y="590" as="targetPoint" />
          </mxGeometry>
        </mxCell>
        <mxCell id="uKtIkehXH7muRqhstlqQ-27" value="Решение проблем &lt;br&gt;и жалоб" style="ellipse;whiteSpace=wrap;html=1;" vertex="1" parent="1">
          <mxGeometry x="294" y="440" width="120" height="80" as="geometry" />
        </mxCell>
        <mxCell id="uKtIkehXH7muRqhstlqQ-28" value="" style="endArrow=none;html=1;rounded=0;entryX=0;entryY=0.5;entryDx=0;entryDy=0;" edge="1" parent="1" target="uKtIkehXH7muRqhstlqQ-27">
          <mxGeometry width="50" height="50" relative="1" as="geometry">
            <mxPoint x="220" y="490" as="sourcePoint" />
            <mxPoint x="440" y="230" as="targetPoint" />
          </mxGeometry>
        </mxCell>
        <mxCell id="uKtIkehXH7muRqhstlqQ-29" value="Содействие при выборе товара" style="ellipse;whiteSpace=wrap;html=1;" vertex="1" parent="1">
          <mxGeometry x="300" y="540" width="120" height="80" as="geometry" />
        </mxCell>
        <mxCell id="uKtIkehXH7muRqhstlqQ-30" value="" style="endArrow=none;html=1;rounded=0;entryX=0;entryY=0.5;entryDx=0;entryDy=0;" edge="1" parent="1" target="uKtIkehXH7muRqhstlqQ-29">
          <mxGeometry width="50" height="50" relative="1" as="geometry">
            <mxPoint x="220" y="510" as="sourcePoint" />
            <mxPoint x="380" y="450" as="targetPoint" />
          </mxGeometry>
        </mxCell>
        <mxCell id="uKtIkehXH7muRqhstlqQ-35" value="" style="endArrow=none;html=1;rounded=0;exitX=1;exitY=0.5;exitDx=0;exitDy=0;" edge="1" parent="1" source="uKtIkehXH7muRqhstlqQ-9" target="uKtIkehXH7muRqhstlqQ-3">
          <mxGeometry width="50" height="50" relative="1" as="geometry">
            <mxPoint x="330" y="460" as="sourcePoint" />
            <mxPoint x="550" y="200" as="targetPoint" />
          </mxGeometry>
        </mxCell>
        <mxCell id="uKtIkehXH7muRqhstlqQ-36" value="" style="endArrow=none;html=1;rounded=0;exitX=1;exitY=0.5;exitDx=0;exitDy=0;" edge="1" parent="1" source="uKtIkehXH7muRqhstlqQ-11" target="uKtIkehXH7muRqhstlqQ-3">
          <mxGeometry width="50" height="50" relative="1" as="geometry">
            <mxPoint x="330" y="460" as="sourcePoint" />
            <mxPoint x="550" y="210" as="targetPoint" />
          </mxGeometry>
        </mxCell>
        <mxCell id="uKtIkehXH7muRqhstlqQ-37" value="" style="endArrow=none;html=1;rounded=0;exitX=1;exitY=0.5;exitDx=0;exitDy=0;" edge="1" parent="1" source="uKtIkehXH7muRqhstlqQ-13" target="uKtIkehXH7muRqhstlqQ-3">
          <mxGeometry width="50" height="50" relative="1" as="geometry">
            <mxPoint x="330" y="460" as="sourcePoint" />
            <mxPoint x="540" y="250" as="targetPoint" />
          </mxGeometry>
        </mxCell>
        <mxCell id="uKtIkehXH7muRqhstlqQ-38" value="" style="endArrow=none;html=1;rounded=0;exitX=1;exitY=0.5;exitDx=0;exitDy=0;" edge="1" parent="1" source="uKtIkehXH7muRqhstlqQ-16">
          <mxGeometry width="50" height="50" relative="1" as="geometry">
            <mxPoint x="330" y="460" as="sourcePoint" />
            <mxPoint x="580" y="250" as="targetPoint" />
          </mxGeometry>
        </mxCell>
        <mxCell id="uKtIkehXH7muRqhstlqQ-41" value="Поддержка" style="shape=umlActor;verticalLabelPosition=bottom;verticalAlign=top;html=1;outlineConnect=0;" vertex="1" parent="1">
          <mxGeometry x="180" y="480" width="30" height="60" as="geometry" />
        </mxCell>
        <mxCell id="uKtIkehXH7muRqhstlqQ-45" value="" style="endArrow=classic;dashed=1;endFill=1;endSize=12;html=1;rounded=0;strokeColor=default;exitX=1;exitY=0.5;exitDx=0;exitDy=0;startArrow=none;startFill=0;entryX=0;entryY=0.5;entryDx=0;entryDy=0;" edge="1" parent="1" source="uKtIkehXH7muRqhstlqQ-46" target="uKtIkehXH7muRqhstlqQ-11">
          <mxGeometry width="160" relative="1" as="geometry">
            <mxPoint x="470" y="460" as="sourcePoint" />
            <mxPoint x="290" y="290" as="targetPoint" />
          </mxGeometry>
        </mxCell>
        <mxCell id="uKtIkehXH7muRqhstlqQ-46" value="прикрепить файл к сообщению" style="ellipse;whiteSpace=wrap;html=1;" vertex="1" parent="1">
          <mxGeometry x="50" y="250" width="120" height="80" as="geometry" />
        </mxCell>
        <mxCell id="uKtIkehXH7muRqhstlqQ-47" value="Extend" style="text;html=1;align=center;verticalAlign=middle;resizable=0;points=[];autosize=1;strokeColor=none;fillColor=none;" vertex="1" parent="1">
          <mxGeometry x="170" y="268" width="60" height="30" as="geometry" />
        </mxCell>
        <mxCell id="uKtIkehXH7muRqhstlqQ-48" value="Добавление и удаление товаров" style="ellipse;whiteSpace=wrap;html=1;" vertex="1" parent="1">
          <mxGeometry x="570" y="540" width="160" height="100" as="geometry" />
        </mxCell>
        <mxCell id="uKtIkehXH7muRqhstlqQ-49" value="Обновление статусов заказов" style="ellipse;whiteSpace=wrap;html=1;" vertex="1" parent="1">
          <mxGeometry x="590" y="650" width="120" height="80" as="geometry" />
        </mxCell>
        <mxCell id="uKtIkehXH7muRqhstlqQ-51" value="" style="endArrow=block;dashed=1;endFill=0;endSize=12;html=1;rounded=0;entryX=0;entryY=0.5;entryDx=0;entryDy=0;exitX=1;exitY=0.5;exitDx=0;exitDy=0;" edge="1" parent="1" source="uKtIkehXH7muRqhstlqQ-16" target="uKtIkehXH7muRqhstlqQ-48">
          <mxGeometry width="160" relative="1" as="geometry">
            <mxPoint x="420" y="680" as="sourcePoint" />
            <mxPoint x="500" y="680" as="targetPoint" />
          </mxGeometry>
        </mxCell>
        <mxCell id="uKtIkehXH7muRqhstlqQ-52" value="" style="endArrow=block;dashed=1;endFill=0;endSize=12;html=1;rounded=0;entryX=0;entryY=0.5;entryDx=0;entryDy=0;exitX=1;exitY=0.5;exitDx=0;exitDy=0;" edge="1" parent="1" source="uKtIkehXH7muRqhstlqQ-16" target="uKtIkehXH7muRqhstlqQ-49">
          <mxGeometry width="160" relative="1" as="geometry">
            <mxPoint x="430" y="730" as="sourcePoint" />
            <mxPoint x="410" y="680" as="targetPoint" />
          </mxGeometry>
        </mxCell>
        <mxCell id="uKtIkehXH7muRqhstlqQ-53" value="Include" style="text;html=1;align=center;verticalAlign=middle;resizable=0;points=[];autosize=1;strokeColor=none;fillColor=none;rotation=0;" vertex="1" parent="1">
          <mxGeometry x="460" y="594.5" width="60" height="30" as="geometry" />
        </mxCell>
        <mxCell id="uKtIkehXH7muRqhstlqQ-54" value="Include" style="text;html=1;align=center;verticalAlign=middle;resizable=0;points=[];autosize=1;strokeColor=none;fillColor=none;rotation=0;" vertex="1" parent="1">
          <mxGeometry x="490" y="650" width="60" height="30" as="geometry" />
        </mxCell>
        <mxCell id="uKtIkehXH7muRqhstlqQ-58" value="" style="endArrow=block;dashed=1;endFill=0;endSize=12;html=1;rounded=0;exitX=0;exitY=1;exitDx=0;exitDy=0;" edge="1" parent="1" source="uKtIkehXH7muRqhstlqQ-20" target="uKtIkehXH7muRqhstlqQ-59">
          <mxGeometry width="160" relative="1" as="geometry">
            <mxPoint x="447" y="685" as="sourcePoint" />
            <mxPoint x="260" y="860" as="targetPoint" />
          </mxGeometry>
        </mxCell>
        <mxCell id="uKtIkehXH7muRqhstlqQ-59" value="Отслеживание продаж" style="ellipse;whiteSpace=wrap;html=1;" vertex="1" parent="1">
          <mxGeometry x="200" y="850" width="120" height="80" as="geometry" />
        </mxCell>
        <mxCell id="uKtIkehXH7muRqhstlqQ-60" value="Анализ прибыльности" style="ellipse;whiteSpace=wrap;html=1;" vertex="1" parent="1">
          <mxGeometry x="370" y="850" width="120" height="80" as="geometry" />
        </mxCell>
        <mxCell id="uKtIkehXH7muRqhstlqQ-62" value="" style="endArrow=block;dashed=1;endFill=0;endSize=12;html=1;rounded=0;exitX=1;exitY=1;exitDx=0;exitDy=0;entryX=0.5;entryY=0;entryDx=0;entryDy=0;" edge="1" parent="1" source="uKtIkehXH7muRqhstlqQ-20" target="uKtIkehXH7muRqhstlqQ-60">
          <mxGeometry width="160" relative="1" as="geometry">
            <mxPoint x="328" y="808" as="sourcePoint" />
            <mxPoint x="293" y="863" as="targetPoint" />
          </mxGeometry>
        </mxCell>
        <mxCell id="uKtIkehXH7muRqhstlqQ-63" value="Include" style="text;html=1;align=center;verticalAlign=middle;resizable=0;points=[];autosize=1;strokeColor=none;fillColor=none;rotation=0;" vertex="1" parent="1">
          <mxGeometry x="420" y="800" width="60" height="30" as="geometry" />
        </mxCell>
        <mxCell id="uKtIkehXH7muRqhstlqQ-64" value="Include" style="text;html=1;align=center;verticalAlign=middle;resizable=0;points=[];autosize=1;strokeColor=none;fillColor=none;rotation=0;" vertex="1" parent="1">
          <mxGeometry x="234" y="800" width="60" height="30" as="geometry" />
        </mxCell>
      </root>
    </mxGraphModel>
  </diagram>
</mxfile>
